# xmcd
#
# Track frame offsets:
#	150
#	1353
#	22990
#	43102
#	62164
#	77641
#	95043
#	107896
#	129382
#	145522
#	163697
#	189303
# Disc length: 2771 seconds
# Revision: 1
# Processed by: cddbd v1.5.2PL0 Copyright (c) Steve Scherf et al.
#
# Submitted via: libkcddb 0.31
#
DISCID=960ad10c
DTITLE=Dioniso - Dalla mia camera
DYEAR=2006
DGENRE=BritPop
TTITLE0=Intro
TTITLE1=Non mi basterai
TTITLE2=Un gran bel film
TTITLE3=Chiudi gli occhi nei miei
TTITLE4=Solo sulla luna
TTITLE5=Tra le lenzuola e il cielo
TTITLE6=Portateci due caffè
TTITLE7=Ottoetrentadieciagosto
TTITLE8=Aria
TTITLE9=Benzina divina
TTITLE10=Pioggia&caffè
TTITLE11=Come tutto il resto non è
EXTD=
EXTT0=
EXTT1=
EXTT2=
EXTT3=
EXTT4=
EXTT5=
EXTT6=
EXTT7=
EXTT8=
EXTT9=
EXTT10=
EXTT11=
PLAYORDER=
